<svg xmlns="http://www.w3.org/2000/svg" width="32" height="32" style="shape-rendering:geometricPrecision;text-rendering:geometricPrecision;image-rendering:optimizeQuality;fill-rule:evenodd;clip-rule:evenodd"><path fill="#1d5b95" d="M3.5-.5h22q5.086 11.45-8 9l-8-2q-4.271.54-2 4-5.747 3.024-8 9v-16Q1 1 3.5-.5" style="opacity:1"/><path fill="#1d72c1" d="M25.5-.5h2q2.5 1.5 4 4v24q-1.5 2.5-4 4h-24q-2.5-1.5-4-4v-8q2.253-5.976 8-9 7.443-.267 11.5 6 1.107 4.454 3.5 8a3.65 3.65 0 0 0 1.5-1q1-3 0-6a29.3 29.3 0 0 0-6.5-9q13.086 2.45 8-9" style="opacity:.994"/><path fill="#bfc3c8" d="M17.5 8.5a29.3 29.3 0 0 1 6.5 9q1 3 0 6-.621.685-1.5 1-2.393-3.546-3.5-8-4.057-6.267-11.5-6-2.272-3.46 2-4z" style="opacity:1"/><path fill="#bfc4c8" d="M7.5 13.5q10.407.63 9 10.5-1 1-2 0-1.25-6.25-7.5-7.5-.705-1.616.5-3" style="opacity:1"/><path fill="#bec3c8" d="M7.5 20.5q5.04 1.055 1 4-3.213-1.405-1-4" style="opacity:1"/></svg>