<svg xmlns="http://www.w3.org/2000/svg" width="509" height="429"><path fill="#0179dc" d="m284.798 57.563 2.343.968 2.047.862c1.968.766 1.968.766 4.812.607v2l4 1v2c-5.467-.645-10.74-1.82-16.1-3.07-13.24-3.079-26.389-5.454-39.9-6.93l-3.477-.398C214.695 52.323 182.886 51.619 163 67c-7.342 6.984-10.373 12.7-11.016 22.828.088 17.842 13.197 31.38 25.016 43.172l1.38 1.38L180 136l2.325 2.367c9.672 9.519 20.489 17.209 31.8 24.633l2.196 1.452c10.998 7.27 22.082 14.266 33.679 20.548l2.249 1.245c35.891 19.845 74.963 32.561 115.064 40.63l2.181.441c10.124 2.029 20.247 3.53 30.506 4.684-5.995 5.995-19.615 4.305-27.703 4.33q-2.523-.006-5.047-.018l-2.615-.005c-14.07-.05-27.764-.815-41.635-3.307l-3.048-.536C265.96 222.775 215.789 201.107 169 172.813l-2.86-1.729c-6.22-3.8-12.211-7.846-18.14-12.084l-3.582-2.52c-5.988-4.25-11.936-8.55-17.793-12.98l-1.714-1.277c-1.342-1.026-2.633-2.119-3.911-3.223v-2l-1.625-.687c-3.2-1.769-5.665-3.85-8.375-6.313v-2l-1.75-.75c-12.894-7.163-23.171-26.823-27.48-40.332-2.753-10.44-2.711-19.541 2.449-29.2 8.18-13.27 21.336-20.676 36.094-24.53 53.765-12.758 114.613 3.577 164.485 24.374"/><path fill="#0179dc" d="M222.373 17.917c2.526.328 5.054.642 7.582.954 16.617 2.106 32.813 5.597 48.982 9.941l3.861 1.03c8.59 2.32 17.014 4.97 25.352 8.075 4.306 1.616 4.306 1.616 8.85 2.083v2l1.592.408c8.769 2.428 17.01 6.056 25.345 9.654l2.36 1.014c11.175 4.81 22.087 9.885 32.711 15.828a199 199 0 0 0 5.988 3.143c23.618 12.013 45.526 26.518 65.527 43.871 2.28 2.08 2.28 2.08 4.477 3.082v2c.565.23 1.13.461 1.71.7 13.54 7.693 25.644 28.472 30.102 42.675 2.96 10.982 3.914 21.4-1.812 31.625-8.358 12.537-22.32 17.646-36.483 20.5-25.264 4.584-51.254 3.398-76.517-.5l-3.266-.504C343.262 211.426 318.262 204.738 294 196l-2.597-.919a611 611 0 0 1-7.59-2.769l-2.308-.828c-5.164-1.978-5.164-1.978-6.993-4.691L274 185c2.51-.897 3.645-1.132 6.187-.188C282 186 282 186 283 188c1.852.26 3.706.507 5.566.696 4.564.57 9.017 1.718 13.496 2.741 26.845 5.967 58.348 9.957 84.938.563l3.012-1.023c8.486-3.173 15.89-7.683 20.425-15.79 2.11-4.824 2.839-10.003 3.563-15.187l-2-1a168 168 0 0 1-.723-5.793c-.407-3.244-1.205-6.116-2.277-9.207l-2-1a258 258 0 0 1-2.924-5.114C394.906 121.812 379.538 108.13 365 97l-2.82-2.266c-15.568-12.342-32.406-22.847-49.793-32.413a393 393 0 0 1-6.36-3.61c-26.921-15.259-58.374-25.665-88.215-33.274l-2.84-.726c-5.51-1.33-10.88-2.096-16.537-2.474-3.332-.324-6.266-1.18-9.435-2.237 7.945-7.945 23.385-3.39 33.373-2.083"/><path fill="#0178dc" d="m67 203 3 1c.425.856.85 1.712 1.29 2.594 2.131 4.245 4.93 7.389 8.085 10.906q1.7 1.92 3.398 3.844l1.658 1.864a194 194 0 0 1 4.26 5.062c1.877 2.219 3.653 4.066 5.871 5.917a234 234 0 0 1 8.725 7.823c9.85 9.582 9.85 9.582 21.713 15.99l-1.75-3.016C109 230.022 109 230.022 109 222c3.43 1.466 5.514 3.361 8.063 6.063C125.528 236.708 135.26 243.86 145 251l2.383 1.77C178.919 275.593 221.576 294.607 261 296v2q8.45.112 16.9.165 2.862.022 5.722.061c12.415.167 24.167-.572 36.377-2.865 2.99-.54 5.99-.952 9.001-1.361v2c-28.764 24.863-64.655 31.183-101.734 28.727-48.87-4.03-94.796-25.054-127.891-61.54A191 191 0 0 1 96 259l-1.303-1.65C67 222.035 67 222.035 67 203M22 63c3.725 1.242 4.258 2.477 6.438 5.688 3.878 5.52 8.132 10.585 12.613 15.627 2.24 2.55 3.864 4.43 4.949 7.685h2c1.445 1.469 1.445 1.469 3.125 3.5 3.254 3.85 6.723 7.36 10.371 10.836C63 108 63 108 63 110l1.938.813C67 112 67 112 68 115h2v2l1.652.652c3.152 1.81 5.427 4.305 7.91 6.91 4.7 4.82 9.587 9.17 14.864 13.364 2.397 1.931 4.676 3.937 6.949 6.012 5.61 5.032 11.598 9.549 17.625 14.062l1.807 1.357c34.085 25.528 72.314 48.187 112.068 63.635C235 224 235 224 236 226c-43.833 8.005-85.63-1.104-124.995-21.101-1.943-1.035-1.943-1.035-4.005-.899v-2l-2.223-.844C92.75 196.15 80.42 186.981 71 178l-1-3c3.635.579 7.25 1.233 10.863 1.938l2.69.523q2.742.535 5.484 1.078A182 182 0 0 0 106 181l-2.687-1.687c-3.827-2.557-6.994-5.62-9.829-9.258-1.735-2.069-3.183-3.631-5.484-5.055-3.528 0-6.635 1.015-10 2-5.928.613-10.233-.475-15-4-6.613-6.947-7.15-16.856-7-26 3.664-1.357 5.506-.523 9 1h3l-2.047-2.012-2.703-2.675-2.672-2.637c-2.372-2.462-4.471-4.987-6.578-7.676l-2.262-2.621C39.245 105.873 22 82.903 22 63"/><path fill="#0478da" d="M261 237c6.996 1.447 13.747 3.37 20.563 5.5 11.98 4.221 11.98 4.221 24.437 5.5v2l1.805.153c5.435.497 10.76 1.248 16.132 2.205 41.385 7.277 84.529 8.128 126.063 1.642v3c-15.389 7.577-30.024 11.634-47 14l-.355 3.293c-.856 4.923-2.172 6.234-5.645 9.707-3.411 2.227-6.232 2.212-10.25 2.125l-3.266-.055L381 286l-.875-1.812c-1.172-2.381-1.172-2.381-3.125-5.188v-6h-20c8.36 7.13 16.778 12.016 27 16l-1 3c-41.58-3.051-84.265-16.829-115-46l-2.29-2.145C264 242 264 242 264 240l-3-1zM243 78.813l2.315.212c4.785.52 9.054 1.626 13.586 3.237 2.868 1.008 5.788 1.768 8.724 2.55C290.26 91.298 311.421 102.605 330 117l2.54 1.957c8.107 6.683 15.77 15.564 17.87 26.102.363 4.774-1.008 8.25-3.683 12.054-7.108 7.767-17.335 10.451-27.51 11.051-20.36.775-39.568-1.11-57.217-12.164l-2-1c2.25-1.125 2.25-1.125 5-2 1.938.813 1.938.813 4 2 6.101 1.232 12.11 1.258 18.313 1.313l3.302.087c8.22.065 14.467-1.246 20.947-6.463 2.513-5.134 2.357-10.601.848-16.078-5.079-11.514-16.607-20.948-27.41-26.859l-2.305-1.879C262.822 89.481 236.222 85.111 212 81v-2c9.365-2.994 21.374-1.133 31-.187"/><path fill="#0278db" d="M141 307h2v2l1.941.719a101 101 0 0 1 7.086 3.312c20.516 10.396 43.15 18.57 65.973 21.969l2.007.302c7.04.919 14.09.882 21.18.885l3.713.038c11.635.018 22.803-1.498 34.1-4.225-5.372 11.867-17.623 20.087-29.273 24.977-22.312 8.374-48.093 8.06-69.95-1.77-7.97-3.91-15.49-8.907-21.777-15.207l-1-3h-2a146 146 0 0 1-5.125-7.375l-1.418-2.117C145 322.267 145 322.267 145 320l-2-1c-1.416-4.092-2.263-7.667-2-12"/><path fill="#0277d9" d="m186 368 1.879.55c16.945 4.81 31.75 6.826 49.121 3.45q3-.508 6-1v-3l5 1c-1.468 12.358-4.938 25.191-14.809 33.527-6.404 4.446-13.473 6.146-21.191 4.973-9.286-2.332-15.516-7.017-20.602-15.074-4.312-7.481-5.708-14.851-6.398-23.426z"/><path fill="#1472ca" d="m449 254 2 2a451 451 0 0 1-5.187 3l-2.918 1.688c-2.944 1.334-4.714 1.591-7.895 1.312l1-2-3.922.219c-28.478 1.44-57.21 2.157-85.578-1.094l-2.328-.264c-13.242-1.54-13.242-1.54-17.172-3.861 9.724-.208 19.174.35 28.839 1.283 29.82 2.83 61.067 3.504 90.634-2.08z"/><path fill="#137ad2" d="M279.063 184.813C282 186 282 186 283 188c1.852.26 3.706.507 5.566.696 4.563.57 9.017 1.717 13.497 2.742 8.953 2.005 17.811 3.596 26.937 4.562v1l-9 1c.67 3.064.67 3.064 2.848 4.168l2.214 1.02 2.223 1.042L329 205c-3.548 1.183-4.624.744-8.137-.336l-3.156-.964-3.394-1.075-3.477-1.09a631 631 0 0 1-24.336-8.285l-3.108-1.103-2.86-1.069-2.514-.925c-2.418-1.382-3.036-2.59-4.018-5.153 2-1 2-1 5.063-.187"/><path fill="#1d7ed2" d="M222.373 17.917c2.526.328 5.054.642 7.582.954C241.447 20.33 252.701 22.451 264 25c-7.867 2.134-16.164.03-24-1.563-6.726-1.365-13.146-1.787-20-1.437l-1 2 2.012.078c5.532.356 8.954.753 12.988 4.922-6.432-1.036-12.705-2.408-19-4.063-5.555-1.45-10.916-2.367-16.648-2.722-3.304-.302-6.212-1.168-9.352-2.215 7.945-7.945 23.385-3.39 33.373-2.083"/><path fill="#1c78cb" d="M180 326a313 313 0 0 1 17.204 4.208c15.025 4.071 28.803 5.942 44.358 6.042l3.66.029c11.506-.042 22.604-1.582 33.778-4.279-1.516 3.478-3.577 5.956-6.125 8.75l-2.195 2.422L269 345l-2-1 3-5-1-1c-1.911.23-3.822.465-5.729.729-3.587.428-7.158.453-10.767.474l-2.4.017q-2.505.014-5.009.02c-2.495.01-4.989.04-7.484.072-15.908.108-30.378-2.697-45.673-7l-3.526-.97A1765 1765 0 0 1 180 329z"/><path fill="#2487d5" d="M349 225c7.499-.3 14.236.842 21.563 2.375 9.793 1.974 19.497 3.619 29.437 4.625-5.678 5.678-17.884 4.244-25.532 4.276q-2.524-.003-5.047-.015c-2.52-.01-5.04 0-7.562.012-11.076.009-21.88-.82-32.859-2.273v-1l3.207.219c14.266.896 28.503.885 42.793.781l1-2-27-6z"/><path fill="#197bd1" d="m243 78.813 2.315.212c5.52.601 10.487 2.042 15.685 3.975v1h-15v2c-4.694.104-8.98-.212-13.59-1.094l-3.623-.683-3.725-.723-3.806-.723q-4.63-.88-9.256-1.777v-2c9.365-2.994 21.374-1.133 31-.187"/><path fill="#1f7ecf" d="M215 216c4.535 1.45 8.933 3.14 13.313 5 .632.26 1.264.52 1.916.79 4.653 1.974 4.653 1.974 5.771 4.21-25.583 4.672-50.675 3.678-76-2v-1c7.39-.192 14.334.352 21.625 1.5 20.05 3.508 20.05 3.508 39.375.5 2-.04 4-.043 6 0v-2l-1.863-.55c-.809-.252-1.617-.504-2.45-.762l-2.425-.739c-2.373-.996-3.631-1.98-5.262-3.949z"/><path fill="#2184d5" d="M260 49c4.296.584 7.95 1.625 11.95 3.285l3.318 1.358 3.42 1.42q3.377 1.4 6.761 2.785l3.01 1.25c2.563 1.07 2.563 1.07 5.541.902v2l4 1v2c-5.468-.645-10.742-1.822-16.102-3.07A354 354 0 0 0 242 55v-1c17.929-.357 17.929-.357 25 2v-3l-5-1v-2z"/><path fill="#1874c7" d="M67 203c3 1 3 1 4.332 3.633L73 210c1.776 2.397 3.721 4.632 5.688 6.875l1.548 1.797A916 916 0 0 0 84 223l-2 2v-2l-3-1v-3l-1.875-.937L73 216c4.806 10.788 9.533 20.78 17 30a564 564 0 0 1 3.5 4.5l1.469 1.844C96 254 96 254 96 257c-14.054-13.637-23.728-31.226-29-50z"/><path fill="#1d75c8" d="M455 214c-22.03 12.077-59.42 5.399-83 2v-1c6.113-.97 11.514-.928 17.625-.062 16.55 2.265 37.631 3.56 53.875-1.063 4.295-1.074 7.173-.648 11.5.125"/><path fill="#2e90d9" d="M223 290c5.312.673 10.42 1.76 15.625 3 7.482 1.733 14.683 2.728 22.375 3v2h51v1c-6.17.89-12.208 1.202-18.437 1.273l-3.002.038c-3.187.032-6.374.05-9.561.064l-3.272.015c-18.137.034-34.494-1.422-51.728-7.39v-2z"/><path fill="#1d78c9" d="M477 148c3 1 3 1 4.281 2.934 5.604 11.513 10.224 24.82 7.07 37.718-2.155 5.98-5.419 11.251-10.351 15.348h-3l1.426-1.758 1.887-2.367 1.863-2.32c4.482-6.277 5.375-11.067 5.324-18.618l-.009-2.816c-.21-9.014-2.414-16.106-7.159-23.84C477 150 477 150 477 148"/><path fill="#1977cc" d="M269 41c5.627-.497 9.41 1.166 14.375 3.5l2.39 1.096A657 657 0 0 1 293 49l2.139 1.019C305.334 54.919 315.195 60.367 325 66c-2.586.99-3.681 1.128-6.292.079l-2.54-1.474-2.887-1.633-3.094-1.785C296.885 53.728 283.158 47.64 269 42z"/><path fill="#1a75ca" d="m101 41 2 1c-2.703 2.784-5.4 5.334-8.437 7.75-6.106 5.17-10.06 11.221-10.729 19.239-.154 2.274-.28 4.547-.397 6.823l-.13 2.39Q83.149 81.1 83 84h-2c-2.461-9.23-1.236-17.943 3.219-26.281C88.493 50.785 94.249 45.5 101 41"/><path fill="#0d67c1" d="M266.25 153.75 269 155c6.525 1.963 12.71 2.411 19.5 2.625l3.07.117q3.715.141 7.43.258c-2.934 2.934-6.183 2.462-10.125 2.625l-2.285.117c-1.863.095-3.726.177-5.59.258l2 2c-5.65.399-9.438-.762-14.312-3.437l-1.877-.987c-1.61-.847-3.211-1.71-4.811-2.576l-2-1c2.44-1.627 3.398-2.2 6.25-1.25"/><path fill="#1874c9" d="M87 188a114 114 0 0 1 8.176 4.434C108.13 200.026 121.364 206.717 135 213v1c-6.42-.501-11.566-2.752-17.375-5.437l-2.77-1.237c-6.723-3.062-6.723-3.062-7.855-5.326a157 157 0 0 0-5-2c-5.661-3.016-10.803-6.103-15-11z"/><path fill="#1f7fd0" d="M70 175c3.614.573 7.204 1.227 10.793 1.938 12.582 2.547 12.582 2.547 25.344 3.789C108 181 108 181 110 183c-10.54.273-20.579-.466-31-2l2.438 2.375C84 186 84 186 85 188c-3.448-1.551-6.23-3.592-9.187-5.937l-2.668-2.09C71 178 71 178 70 175"/><path fill="#1b79cd" d="M329 47c6.473 1.065 12.265 3.917 18.25 6.5l1.888.81C359.372 58.705 369.302 63.513 379 69l-3 2-2.727-1.398C359.424 62.559 345.305 56.063 331 50v-2z"/><path fill="#1372c9" d="M113 129c3.298 1.446 5.48 3.257 8.063 5.75 4.965 4.565 10.25 8.575 15.687 12.563l2.473 1.813c3.379 2.46 6.757 4.886 10.27 7.151 2.551 1.753 3.479 2.845 4.507 5.723-11.011-5.329-20.169-12.994-29.479-20.804-1.526-1.282-1.526-1.282-3.521-2.196v-2l-1.75-.625c-3.064-1.873-4.405-4.345-6.25-7.375"/><path fill="#1978cc" d="M22 63c3.887 1.296 4.812 3.078 7.188 6.375l2.167 2.96C33 75 33 75 33 78l-4-1c.72 3.753 2.331 6.86 4.063 10.25l1.66 3.266L36 93l-2 2C22 71.607 22 71.607 22 63"/><path fill="#1973c8" d="m166.063 29.313 2.666.104c5.057.264 9.463.985 14.271 2.583v1h-50v-1c10.434-3.903 22.082-3.155 33.063-2.687"/><path fill="#288bd8" d="M232.397 50.845c2.72-.083 2.72-.083 6.603.155l2 3-2.788-.048c-17.635-.26-34.831-.405-52.212 3.048l-2.777.548Q179.61 58.266 176 59l1-3c9.7-4.368 21.686-3.772 32.125-4.187q2.682-.123 5.363-.249 6.21-.282 12.42-.49c1.83-.065 3.66-.145 5.49-.229"/><path fill="#1878cc" d="M305 212c7.903.55 15.015 2.6 22.563 4.938q3.532 1.077 7.066 2.152l3.325 1.011c3.66 1.08 7.332 2.022 11.046 2.899-2.103 1.25-3.456 2.034-5.933 1.879l-2.06-.54-2.385-.609L336 223l-2.864-.78a736 736 0 0 1-9.261-2.657l-3.168-.909c-5.417-1.578-10.586-3.282-15.707-5.654z"/><path fill="#197acd" d="M109 222c3.406 1.41 5.24 2.73 7 6l.188 3.813c.41 5.62 3.068 9.915 5.842 14.694 2.361 4.11 3.838 7.883 4.97 12.493-8.157-4.078-14.548-24.804-17.406-32.96C109 224 109 224 109 222"/><path fill="#1f7dd0" d="M306 311c-3.452 2.968-7.259 4.45-11.5 5.938l-2.222.781c-10.44 3.518-22.186 6.747-33.278 6.281v-1l2.012-.367 2.675-.508 2.637-.492c2.663-.558 2.663-.558 5.028-1.586 3.367-1.331 6.818-2.106 10.336-2.922 5.67-1.35 10.89-3.057 16.25-5.375 2.742-.997 5.178-1.054 8.062-.75"/><path fill="#1e7ed0" d="M385 195c-3.402 2.268-5.942 2.809-9.937 3.625-1.226.26-2.452.52-3.715.79-9.919 1.608-20.155.417-30.098-.415-1.186-.095-2.372-.19-3.594-.29q-4.328-.348-8.656-.71v-1l2.269.032c23.916.407 23.916.407 47.59-2.626 2.378-.451 3.865-.165 6.141.594"/><path fill="#1b7cd1" d="M363 94h4l1 3 3 1.5 3 1.5 1 3 2.125 1.25c3.316 2.018 5.662 4.428 8.324 7.227 1.493 1.622 1.493 1.622 3.551 2.523v2h2c1.727 1.969 1.727 1.969 3.625 4.5l1.914 2.531L398 125c-3 0-3 0-4.91-1.601l-2.152-2.239-2.401-2.46-2.537-2.638c-6.098-6.237-12.118-12.179-19.066-17.468C365 97 365 97 363 94"/><path fill="#1f7bcd" d="M210 320q8.705.569 17.407 1.172 2.963.203 5.925.395c2.835.185 5.67.382 8.504.581l2.686.168 2.487.182 2.194.148C251 323 251 323 253 325c-10.578.19-21.085.215-31.625-.812l-2.42-.213c-4.091-.446-6.25-.872-8.955-3.975"/><path fill="#1a79cd" d="M174 195c3.844 1.46 7.439 3.205 11.078 5.117l3.52 1.84 5.462 2.87c6.896 3.62 13.776 7.114 20.94 10.173-1.753 1.105-1.753 1.105-4 2-1.928-.548-1.928-.548-3.95-1.676l-2.297-1.248-2.44-1.388-5.098-2.805-2.614-1.456a278 278 0 0 0-7.597-3.997l-2.363-1.21a637 637 0 0 0-4.472-2.262c-5.057-2.622-5.057-2.622-6.169-5.958"/><path fill="#1774ca" d="M175 174c3.824 1.442 7.345 3.192 10.93 5.152l3.41 1.854q2.649 1.447 5.298 2.896c8.998 4.933 8.998 4.933 18.362 9.098v3c-5.028-1.493-9.411-3.645-14-6.125l-2.23-1.198q-3.39-1.83-6.77-3.677l-2.137-1.154a670 670 0 0 1-5.863-3.221l-3.437-1.898C176 177 176 177 175 174"/><path fill="#0775d6" d="M28 76c6.124.371 9.856 4.65 13.781 8.953 1.433 1.663 2.84 3.34 4.219 5.047l-1 2c-3.35-1.117-3.793-1.747-5.687-4.562l-1.325-1.942L37 84l-2 5c-2.956-2.752-5.188-5.375-7-9z"/><path fill="#1877cd" d="M229 175c5.122.557 9 3.038 13.375 5.563q2.397 1.359 4.797 2.714l2.432 1.379c3.644 2.044 7.329 4.012 11.021 5.969l1.955 1.037q2.209 1.171 4.42 2.338l-3 2c-33.596-18.193-33.596-18.193-35-21"/><path fill="#1876ca" d="M107 268h2v2h2l1 3a149 149 0 0 0 5 3 254 254 0 0 1 5.875 4.875c4.242 3.595 8.53 6.992 13.125 10.125-1.59.8-1.59.8-4 1a61 61 0 0 1-6.562-4.812l-1.853-1.508A432 432 0 0 1 118 281l-1.725-1.458c-6.653-5.674-6.653-5.674-9.275-8.542z"/><path fill="#1975c8" d="M139 294c4.347 1.633 8.436 3.7 12.563 5.813A238 238 0 0 0 172 309v2l2 1c-6.89-.887-12.432-3.805-18.625-6.812l-3.43-1.62-3.297-1.588-2.994-1.44c-2.704-1.57-4.597-3.197-6.654-5.54z"/><path fill="#1a72c6" d="m353 270 26 1 3 11-4-1c-1.354-2.709-1.065-5.01-1-8l-3.473.07q-2.295.029-4.59.055c-.752.017-1.504.034-2.279.05-4.951.044-8.962-.591-13.658-2.175z"/><path fill="#349be3" d="m449 254 2 2a500 500 0 0 1-5.312 3.063l-2.989 1.722C440 262 440 262 437 261h2v-2l4-1-2.727.219c-11.765.849-23.48.887-35.273.781v-1l2.64-.152q4.946-.289 9.89-.593 2.123-.128 4.245-.25c8.355-.48 16.521-1.223 24.76-2.802z"/><path fill="#207ac7" d="M241 384h3c-1.302 7.88-5.09 13.811-11.254 18.809-4.529 3.09-8.05 3.45-13.496 3.316l-2.113-.027c-1.713-.024-3.425-.06-5.137-.098v-1l2.344-.078c6.968-.38 11.617-1.455 17.656-4.922h2l.871-1.75q1.069-2.131 2.164-4.25l1.028-2 1.035-2c.896-1.987 1.442-3.874 1.902-6"/><path fill="#1570c5" d="m434 261 3 2q-3.592 1.223-7.187 2.438l-2.042.697c-6.802 2.29-12.475 3.005-19.584 2.928l-2.388-.014q-2.9-.02-5.799-.049v-1l1.721-.212c10.29-1.294 20.123-2.564 29.88-6.214z"/><path fill="#177acf" d="M337 208c7.156-.277 13.642.469 20.625 2l2.754.578q3.313.698 6.621 1.422v2l4 1c-7.92-.515-15.457-1.792-23.187-3.562l-3.174-.71q-3.822-.855-7.639-1.728z"/><path fill="#1369bd" d="M371 286c5.232-.383 8.378.781 13 3l-1 3-20-2v-2h8z"/><path fill="#1b79cb" d="M269 196c5.013.663 9.268 2.781 13.813 4.875 5.666 2.594 11.326 5 17.187 7.125v1c-7.397-.414-12.916-2.378-19.562-5.562l-2.768-1.288A715 715 0 0 1 271 199v-2z"/><path fill="#1d7dcf" d="M408 142c3 1 3 1 4.168 2.652 2.65 5.94 3.2 11.305 3.207 17.723l.005 2.379c-.075 3.858-.197 6.98-2.38 10.246h-2l3-15-2-1a168 168 0 0 1-.723-5.793c-.407-3.244-1.205-6.116-2.277-9.207l-2-1z"/><path fill="#1e7dd0" d="m263 346 3 1c-8.027 6.693-19.189 13.636-30 13 3.75-2 3.75-2 6-2v-2l3.75-1.062c5.375-1.75 9.898-4.59 14.648-7.61z"/><path fill="#1a73c1" d="M194.3 17.77q2.007.006 4.012.043l3.989.019c3.044.138 5.748.455 8.699 1.168v3q-3.531.08-7.062.125l-3.973.07c-4.083-.2-7.115-.923-10.965-2.195 2-2 2-2 5.3-2.23"/><path fill="#1c7cce" d="M455 121c9.048 3.653 16.163 15.484 22 23l-1 2h-2a112 112 0 0 1-4.437-5.812c-2.355-3.261-4.664-6.384-7.563-9.188a791 791 0 0 1-3-5 207 207 0 0 0-4-5"/><path fill="#1a79ce" d="M130 167c5.863 3.073 11.306 6.504 16.691 10.352 2.73 1.948 5.508 3.805 8.309 5.648-3 1-3 1-5.094.031L147.5 181.5l-2.652-1.68L142 178l-3.066-1.82-2.996-1.805-2.786-1.664C131 171 131 171 130.192 168.789z"/><path fill="#1674cb" d="M422 96c9.514 3.383 17.68 10.168 25 17v2c-3.545-1.62-6.59-3.726-9.75-6l-2.984-2.125L432 105v-2h-3v-2l-2.375-.937C424 99 424 99 422 98z"/><path fill="#1777ca" d="m50 115 5 5 1.813 1.688C58 123 58 123 58 125h2c1.621 1.645 1.621 1.645 3.438 3.813 2.107 2.498 4.214 4.911 6.562 7.187l-3 1c-9.455-9.273-9.455-9.273-13-14l-2.25-2.625C50 118 50 118 50 115"/><path fill="#1e78ca" d="M171 349c3.821.623 6.98 1.78 10.5 3.375 6.35 2.725 12.739 4.284 19.5 5.625v1c-11.443.894-20.354-3.189-30-9z"/><path fill="#1d7bcd" d="M280 30c9.696 1.564 18.75 4.795 28 8v1a101.7 101.7 0 0 1-18.5-3.375l-2.453-.633C285 34.43 282.995 33.725 281 33z"/><path fill="#1774c9" d="M163 265c3.656.595 6.568 1.606 9.863 3.285l2.686 1.358 2.763 1.42 2.823 1.431Q184.572 274.24 188 276v1c-9.14-.415-17.797-5.597-25-11z"/><path fill="#238bdb" d="M297.25 164.875c8.228 1.293 16.436 1.743 24.75 2.125v1c-3.937.059-7.875.094-11.812.125l-3.334.05c-7.18.043-13.845-.612-20.854-2.175v-1c4.062-1.068 7.13-.838 11.25-.125"/><path fill="#1a77c9" d="M84 91h2l1.137 2.16c2.384 4.463 4.726 8.828 7.738 12.903C97 109 97 109 97 111l2 1-2 2C86.073 99.588 86.073 99.588 84 91"/><path fill="#1870c6" d="M327 255c7.74-.1 15.335-.17 23 1l1 1c1.347.23 2.704.412 4.063.563L359 258v1c-10.787.682-21.383-1.332-32-3z"/><path fill="#1f7cce" d="m294 247 12 1v2l2.012.184c8.77.832 8.77.832 12.988 1.816v1c-5.69 1.483-10.291.362-15.875-.937l-2.664-.592q-3.234-.72-6.461-1.471v-2z"/><path fill="#1672c7" d="M193 280c5.146.576 9.55 1.747 14.438 3.563l3.746 1.378c.929.35 1.858.7 2.816 1.059v2l2 1c-5.377-.566-9.887-1.882-14.875-3.937l-2.047-.803c-4.95-2.003-4.95-2.003-6.078-4.26"/><path fill="#1e7fd0" d="M229 41c6.73-.377 12.118.94 18.5 3l2.781.867Q253.645 45.918 257 47c-3.705 2.058-3.705 2.058-6.36 1.54-.788-.303-1.577-.604-2.39-.915l-2.422-.898L244 46v-2l-3 .125c-4.238.017-7.932-.983-12-2.125z"/><path fill="#1875ca" d="m64 161 2.54.992c3.791 1.104 6.896 1.207 10.835 1.133l3.773-.055L84 163c-2 3-2 3-3.687 3.688-5.944.803-10.17.619-15.313-2.688z"/><path fill="#1b7bd0" d="m281 56-1 3q-2.594.04-5.187.063l-2.918.035c-2.75-.093-5.22-.477-7.895-1.098v-1c6.059-2.383 10.808-4.096 17-1"/><path fill="#1d7acc" d="M142 251c3.18.627 5.41 1.725 8.11 3.504l2.285 1.494 2.355 1.565 2.402 1.576q2.93 1.923 5.848 3.861c-2.308.812-3.5 1.21-5.8.243l-1.802-1.227-1.984-1.336-2.039-1.43-2.062-1.383c-3.17-2.167-5.144-3.613-7.313-6.867"/><path fill="#2082d4" d="M455 214c-7.539 4.344-17.509 4.288-26 4v-1q4.245-1.054 8.5-2.062l2.398-.604c5.421-1.266 9.62-1.334 15.102-.334"/><path fill="#2c96e1" d="M279.063 184.813C282 186 282 186 283 188c1.993.257 3.988.508 5.992.656C291 189 291 189 294 191l-2.082-.254-2.73-.309-2.708-.316c-2.614-.278-2.614-.278-5.48.879-3.125-1.25-3.125-1.25-6-3l-1-3c2-1 2-1 5.063-.187"/><path fill="#197ace" d="m152 98 .738 1.563c1.012 1.954 2.113 3.86 3.242 5.75.36.6.718 1.2 1.088 1.82q1.124 1.875 2.274 3.734c2.716 4.594 2.716 4.594 2.396 7.57L161 120q-1.97-3.187-3.937-6.375l-1.131-1.828c-3.186-5.166-4.045-7.67-3.932-13.797"/><path fill="#1d7dcf" d="m472 205 3 1c-5.15 3.465-10.044 6.183-16 8l-3-1c1.568-3.137 4.22-3.382 7.438-4.562 4.348-1.564 4.348-1.564 8.562-3.438"/><path fill="#1a79ce" d="M213 196c5.214-.432 8.798.983 13.313 3.375l1.916.96c4.63 2.383 4.63 2.383 5.771 4.665-4.82-.675-8.919-2.58-13.312-4.562l-2.245-.999Q215.72 198.225 213 197z"/><path fill="#1876cb" d="M401 83c4.544.564 7.937 2.484 11.75 4.875l1.785 1.066c4.34 2.684 4.34 2.684 5.465 6.059-4.535-1.587-8.315-3.956-12.312-6.562l-1.956-1.249A184 184 0 0 1 401 84z"/><path fill="#1a7dd4" d="m198 53-1 2a97 97 0 0 1-7.187 1.563l-2.002.38c-3.928.74-7.866 1.413-11.811 2.057l1-3c6.805-2.684 13.76-3.362 21-3"/><path fill="#1e7ccb" d="M141 307h2v2l2.125.813c3.04 1.255 5.948 2.69 8.875 4.187v1c-6.625-.75-6.625-.75-10-3l1 5h-2c-1.604-3.508-2.22-6.144-2-10"/><path fill="#1772ca" d="M240 296h21v4c-7.094-.585-14.016-1.632-21-3z"/><path fill="#2183d4" d="M395 217v1c-7.832.27-15.273-.769-23-2v-1c7.52-1.88 15.95-1.17 23 2"/><path fill="#1972c4" d="M36 94c2.364 3.065 4.485 6.234 6.563 9.5l1.816 2.844A71 71 0 0 1 48 113c-4.507-1.502-6.411-5.113-8.812-8.937l-1.272-1.92c-1.06-1.661-1.998-3.4-2.916-5.143z"/><path fill="#2585d2" d="M329 294v2c-1.898 1.727-1.898 1.727-4.375 3.625l-2.46 1.914C320 303 320 303 318 303l2-4h3v-2l-11 1c3.32-1.66 5.518-2.451 9.063-3.125l2.597-.508C326 294 326 294 329 294"/><path fill="#2388d7" d="M385 195c-4.21 2.807-7.885 3.13-12.863 3.098l-2.686-.01-2.764-.025-2.822-.014A1758 1758 0 0 1 357 198v-1l1.665-.168q3.762-.382 7.522-.77l2.62-.263c3.426-.355 6.782-.717 10.162-1.393 2.322-.464 3.804-.148 6.031.594"/><path fill="#1b77c9" d="M215 216c5.196 1.599 10.066 3.741 15 6v4l-4-1 1-2-1.863-.55c-.809-.252-1.617-.504-2.45-.762l-2.425-.739c-2.373-.996-3.631-1.98-5.262-3.949z"/><path fill="#1973c6" d="M146 322c3.61 1.203 3.989 2.154 5.938 5.313 2.103 3.305 4.23 5.964 7.062 8.687v2c-1.703-.098-1.703-.098-4-1a73 73 0 0 1-4.75-6.437l-1.246-1.815C146 324.292 146 324.292 146 322"/><path fill="#1573c8" d="M275 250c3.288 1.53 6.163 3.413 9.125 5.5l2.633 1.844C289 259 289 259 291 261c-5.591 0-8.735-2.551-13-6-2.062-2.875-2.062-2.875-3-5"/><path fill="#1e81d3" d="M330 219c6.575.62 12.667 2.149 19 4-2.282 1.398-3.551 2.041-6.254 1.793l-2.308-.606-2.317-.582c-1.72-.49-3.424-1.04-5.121-1.605v-2z"/><path fill="#2182d1" d="M261 237q2.159.427 4.313.875l2.425.492C270 239 270 239 273 241l-5 1-1 3c-1.5-1.375-1.5-1.375-3-3v-2l-3-1z"/><path fill="#1577cd" d="M192 149c3.952.582 6.221 2.552 9.25 5.063l2.703 2.222L206 158l-1 2-2.082-1.46-2.73-1.915-2.708-1.898A330 330 0 0 0 192 151z"/><path fill="#237dcd" d="M232 374v1h-5v2h-14v-2c6.347-.584 12.624-1.145 19-1"/><path fill="#1d7acc" d="M158 317c5.467 1.748 10.758 3.658 16 6-1.61 1.18-1.61 1.18-4 2-3.016-1.117-3.016-1.117-6.25-2.875l-3.266-1.742L158 319z"/><path fill="#1875ca" d="m308 39 9 1v2l5 1v2l2 1c-3.911-.69-7.555-1.783-11.312-3.062l-3.239-1.098L307 41z"/><path fill="#3194da" d="M57 136c5.595.595 5.595.595 8 3l-7-1 1 17c-2.386-3.58-2.473-6.47-2.687-10.625l-.143-2.102c-.105-1.755-.143-3.514-.17-5.273z"/><path fill="#1470c4" d="M349 225c9.41-.185 9.41-.185 14 1v2h5v1c-6.675.455-12.594-1.233-19-3z"/><path fill="#2086d6" d="M243 80c1.77-.054 3.541-.093 5.313-.125l2.988-.07C254 80 254 80 257 82c1.326.682 2.658 1.352 4 2-13.628.273-13.628.273-16.664-2.543z"/><path fill="#1d7ed1" d="M206 35c10.558.964 10.558.964 15 2v2l3 1a1013 1013 0 0 1-4.812-.437l-2.708-.247C214 39 214 39 211 38v-2h-5z"/><path fill="#046bcb" d="M323 297v2l-1.937.875c-2.215.953-2.215.953-3.063 3.125h-2v-3h-4v-2c3.734-.879 7.168-1.09 11-1"/><path fill="#2281cf" d="M331 281q2.657.212 5.313.438c.986.08 1.972.162 2.988.246C342 282 342 282 345 283v2l3 1c-6.048-.55-11.306-1.904-17-4z"/><path fill="#1b7dd2" d="M283 91c3.85.604 6.861 1.768 10.313 3.563l2.675 1.378L298 97v1c-5.274-.538-9.333-1.573-14-4z"/><path fill="#1979cf" d="M379 71c5.853.45 10.082 3.038 15 6-1.64.684-1.64.684-4 1-2.797-1.215-2.797-1.215-5.75-2.937l-2.984-1.715L379 72z"/><path fill="#1e80d4" d="M176 59c-3.12 2.6-6.458 4.296-10.098 6.035-2.142 1.04-2.142 1.04-4.902 2.965l1-4h3v-2c3.72-2.845 6.374-3.323 11-3"/><path fill="#1f7ccd" d="M437 263q-2.618 1.048-5.25 2.063l-2.953 1.16c-2.837.788-4.091.801-6.797-.223h2v-2a284 284 0 0 1 4.813-1.625l2.707-.914C434 261 434 261 437 263"/><path fill="#2388d8" d="M91 180q4.188.172 8.375.375c.794.03 1.588.062 2.406.094 5.992.304 5.992.304 8.219 2.531H95v-2z"/><path fill="#217ccb" d="M187 379c3.417 2.278 3.797 3.384 5.188 7.125l1.042 2.758L194 391l-2 2a486 486 0 0 1-2.5-4.75l-1.406-2.672C187 383 187 383 187 379"/><path fill="#2e8dd6" d="m243 368 5 1-2 12h-1v-8l-5-1 3-1z"/><path fill="#2588d5" d="M269 155c1.992.376 3.992.72 6 1v1c-5.81 1.033-9.412.987-15-1 2.23-4.46 5.339-2.533 9-1"/><path fill="#1c7dd0" d="M269 96c5.281.515 8.572 2.255 13 5v2c-4.827-1.413-8.716-3.43-13-6z"/><path fill="#1b83d8" d="m234 50.75 2.688-.078L239 51l2 3c-1.958.054-3.916.093-5.875.125l-3.305.07C229 54 229 54 227 52c2.468-1.234 4.247-1.202 7-1.25"/><path fill="#1268bd" d="m230 401 2 1c-2.9 3.033-4.118 3.975-8.477 4.098a578 578 0 0 1-4.148-.036l-2.14-.013q-2.618-.02-5.235-.049v-1l2.414-.113c5.945-.37 10.34-.85 15.586-3.887"/><path fill="#2084d5" d="M186 316c6.152-.098 6.152-.098 8 0l1 1c1.347.23 2.704.412 4.063.563L203 318v2c-5.915-.452-11.352-1.158-17-3z"/><path fill="#3c98da" d="M374 286c3.558.61 6.683 1.578 10 3l-1 3-13-1v-1l8-1z"/><path fill="#2a84cd" d="m449 254 2 2a500 500 0 0 1-5.312 3.063l-2.989 1.722C440 262 440 262 437 261h2v-2l2.313-.875c2.837-1.088 2.837-1.088 5.687-3.125z"/><path fill="#106cc6" d="m185 355 5.188.938 2.917.527c2.637.487 5.267 1.002 7.895 1.535v1c-6.13.327-10.627.394-16-3z"/><path fill="#2083d5" d="M331 231v2c-5.152.09-9.92-.153-15-1v-1c5.346-1.002 9.624-.849 15 0"/><path fill="#1d7ace" d="M257 213c3.354.95 6.692 1.897 10 3v2l2 1q-2.16-.387-4.312-.812l-2.426-.458c-2.509-.81-3.616-1.7-5.262-3.73z"/><path fill="#1b7acd" d="M136 214c3.806.672 7.352 1.727 11 3v2l2 1c-9.595-1.558-9.595-1.558-13-6"/><path fill="#1471c7" d="M87 188c2.869 1.383 5.56 2.921 8.25 4.625l2.14 1.352L99 195c-1.805.605-1.805.605-4 1-3.854-2.081-6.497-3.79-8-8"/><path fill="#247fcf" d="M197 372c5.03.525 10.019 1.106 15 2v1c-4.655.838-8.37 1.016-13 0v-2z"/><path fill="#2e8cd6" d="M186 368c1.848.34 1.848.34 4.063.938 1.1.291 1.1.291 2.222.59L194 370c-1.812 1.063-1.812 1.063-4 2l-3-1v7h-1q-.29-2.218-.562-4.437l-.317-2.497L185 369z"/><path fill="#156ec1" d="M88 245c3.268 3.147 6.131 6.494 9 10l-1 2c-5.993-5.831-5.993-5.831-8-9z"/><path fill="#2388d7" d="M363 227c5.369.499 10.692 1.022 16 2v1c-6.474 1.272-9.977.689-16-2z"/><path fill="#1c7dd1" d="M201 190c4.318.508 8.033 1.197 12 3v3c-4.234-1.31-8.074-2.944-12-5z"/><path fill="#278ad7" d="M262 84c5.455.568 9.91 1.946 15 4v1c-6.073.506-9.772-.958-15-4z"/><path fill="#1373ca" d="M119 231q1.947 1.36 3.875 2.75l2.18 1.547c2.03 1.778 2.924 3.23 3.945 5.703l-3-1v-2l-2.375-.687C121 236 121 236 119.688 233.375z"/><path fill="#116fc8" d="M79 179a399 399 0 0 1 5.188-.125l2.917-.07c3.023.204 5.163.926 7.895 2.195v1a601 601 0 0 1-5.75-.375c-1.067-.07-2.135-.14-3.234-.21-2.818-.388-4.599-.972-7.016-2.415"/><path fill="#1475cc" d="M77 125c4.248.472 6.268 2.889 9 6v2a56.5 56.5 0 0 1-7-4v-2h-2z"/><path fill="#1978c9" d="m38 82 8 8-1 2c-3.75-1.25-4.815-2.76-7-6z"/><path fill="#2e86ca" d="M22 63c3 1 3 1 4.688 4.063L28 70h-2l-1-1-1 3-2-1z"/><path fill="#136fc6" d="M276 220q2.658.426 5.313.875l2.988.492C287 222 287 222 290 224c-5.673.293-8.99.006-14-3z"/><path fill="#1471c6" d="M320 217c6.625-.125 6.625-.125 10 1v2l3 1c-4.714-.48-8.666-.968-13-3z"/><path fill="#2d8ed4" d="m67 203 3 1c.75 2 .75 2 1 4l-1 1q.43 3.51 1 7c-2.722-2.722-3.106-5.295-4-9z"/><path fill="#2082d4" d="M315 202c8.035-.63 8.035-.63 12.063 2l1.937 2a589 589 0 0 1-4.75-.875l-2.672-.492c-2.447-.601-4.384-1.413-6.578-2.633"/><path fill="#1065ba" d="m283 189 11 2-2 2c-2.729-.033-5.297-.564-8-1z"/><path fill="#197acd" d="M157 185c3.59 1.334 6.846 2.81 10 5l1 3c-3.59-1.334-6.846-2.81-10-5z"/><path fill="#1371ca" d="M162 166c4.11 1.45 7.433 3.511 11 6-1.625.75-1.625.75-4 1-5.712-3.136-5.712-3.136-7-7"/><path fill="#1672c8" d="M389 116h2c1.727 1.969 1.727 1.969 3.625 4.5l1.914 2.531L398 125c-3 0-3 0-5.625-2.25-2.14-2.479-3.023-3.586-3.375-6.75"/><path fill="#1e7ed1" d="M97 196c4.752.432 6.92 1.328 10 5l-2 1c-1.945-.96-1.945-.96-4.125-2.375l-2.195-1.398L97 197z"/><path fill="#0867c5" d="M171 130c8.631 5.966 8.631 5.966 11 11-3.158-1.398-5.323-3.052-7.75-5.5l-1.86-1.844C171 132 171 132 171 130"/><path fill="#1c80d4" d="M286 106c4.833.414 6.827 2.464 10 6-3.37 0-4.067-.498-6.687-2.437l-1.887-1.372L286 107z"/><path fill="#237fcf" d="M86 55c1.017 2.655 1.13 3.692.004 6.36l-1.442 2.39-1.433 2.422L82 68c-1.017-2.655-1.13-3.692-.004-6.36l1.442-2.39 1.433-2.422z"/><path fill="#2586d6" d="m252.496 22.953 2.941.297 2.934.266C261 24 261 24 264 26c-5.447.097-10.639.129-16-1 2-2 2-2 4.496-2.047"/><path fill="#2483d3" d="M337 208q2.438-.04 4.875-.062l2.742-.036C347 208 347 208 349 209v2c-8.036-.804-8.036-.804-12-3"/><path fill="#1b79c7" d="M276 184c2.125.938 2.125.938 4 2v2l2 1h-6l-2-4z"/><path fill="#1a7dd0" d="M144 155c4.833.414 6.827 2.464 10 6-3.37 0-4.067-.498-6.687-2.437l-1.887-1.372L144 156z"/><path fill="#1575cb" d="M96 142c4.379.505 6.817 3.178 10 6l-3 1c-1.824-1.18-1.824-1.18-3.687-2.875l-1.887-1.68C96 143 96 143 96 142"/><path fill="#156dc2" d="m50 115 8 8-1 2c-5.785-4.308-5.785-4.308-6.875-7.812z"/><path fill="#1c7acd" d="M193 280c4.318.508 8.033 1.197 12 3v1c-4.877.348-7.77-.583-12-3z"/><path fill="#1c79cb" d="m109 248 9 6-4 1c-2.75-2.312-2.75-2.312-5-5z"/><path fill="#1176d1" d="M374 230h10c-2.25 2.063-2.25 2.063-5 4-2.312-.25-2.312-.25-4-1l1-1z"/><path fill="#2a86d1" d="M230 223c2.438.375 2.438.375 5 1l1 2c-3.674 1.176-7.17 1.074-11 1v-1h5z"/><path fill="#1d81d5" d="m159 220 1 3c-4.056-.468-7.466-.88-11-3 3.576-1.238 6.337-.75 10 0"/><path fill="#2180d1" d="M344 133c2.33 2.118 3.888 4.033 5 7l-1 3c-4-5.5-4-5.5-4-10"/><path fill="#1e7fd0" d="M308 125c2.41.964 3.76 1.652 5.25 3.813.86 2.51.896 4.55.75 7.187l-2-3-2.125-3.062C308 127 308 127 308 125"/><path fill="#2082d0" d="M178 272c3.912 1.156 6.875 2.355 10 5-6.5-.613-6.5-.613-8.937-2.5C178 273 178 273 178 272"/><path fill="#1877cb" d="M130 242c3.995.615 6.745 2.706 10 5-1.625.813-1.625.813-4 1-2.298-1.451-4.014-3.104-6-5z"/><path fill="#1071cb" d="M320 112c2.25.125 2.25.125 5 1 2.313 3.063 2.313 3.063 4 6-3.817-1.555-6.192-4.036-9-7"/><path fill="#0869c7" d="M64 112c3.933 1.573 5.69 2.474 7.875 6.188L73 121c-3.82-1.556-6.26-3.956-9-7z"/><path fill="#2284d4" d="M235 29c6.625-.25 6.625-.25 10 2l1 2c-3.806-.672-7.352-1.727-11-3z"/><path fill="#1a75ca" d="m263 346 3 1c-2.25 2.063-2.25 2.063-5 4-2.312-.25-2.312-.25-4-1 2.813-2.062 2.813-2.062 6-4"/><path fill="#2886d0" d="M279 332c-1.75 3.875-1.75 3.875-4 5v-2h-5c5.8-3 5.8-3 9-3"/><path fill="#126dc6" d="M142 251c3.796.542 5.472 2.201 8 5-3 0-3 0-5.687-2.5z"/><path fill="#0a6bc8" d="m103 176 8 4v2c-2.312-.187-2.312-.187-5-1-1.812-2.562-1.812-2.562-3-5"/><path fill="#1674c9" d="M145 179c7.571 1.857 7.571 1.857 10 5-3.949-.564-6.709-1.743-10-4z"/><path fill="#0e61b8" d="m24 67 2 1v2h2l-1 6h-2z"/><path fill="#2081d3" d="M329 47c3.558.61 6.683 1.578 10 3-1.75 1.125-1.75 1.125-4 2-2.25-.875-2.25-.875-4-2v-2z"/><path fill="#2584d3" d="M269 41c5.75-.125 5.75-.125 8 1v2l2 1c-3.558-.61-6.683-1.578-10-3z"/><path fill="#1877cc" d="M206 19h5v3h-10v-1l5-1z"/><path fill="#1f80d2" d="M207 212c2.972 1.125 5.334 2.223 8 4-1.687.75-1.687.75-4 1-2.75-1.937-2.75-1.937-5-4z"/><path fill="#2482d1" d="m283 202 9 3v1c-5.52.368-5.52.368-7.875-1.437C283 203 283 203 283 202"/><path fill="#1c80d5" d="M98 173c2.867.573 3.861.861 6 3l1 3c-4.677-1.477-4.677-1.477-6.312-4.125z"/><path fill="#3294dc" d="m293 60 1 2c2.025.652 2.025.652 4 1v2l-7-1z"/><path fill="#1270c8" d="M277 43c3.344.557 6.033 1.352 9 3v1l-7-1v-2z"/><path fill="#1285de" d="m275 61 4 1-3 1z"/><path fill="#0f85df" d="m171 227 3 1Z"/><path fill="#1487e0" d="m228 85 3 1Z"/><path fill="#1687df" d="m223 84 3 1Z"/><path fill="#1983d2" d="m218 16 3 1Z"/><path fill="#1183da" d="m342 286 2 1Z"/><path fill="#1585dc" d="m412 256 2 1Z"/><path fill="#1086dc" d="m275 190 2 1Z"/><path fill="#1985dc" d="m265 152 2 1Z"/><path fill="#0b83e3" d="m123 143 2 1Z"/><path fill="#198de1" d="m283 63 2 1Z"/></svg>