<svg xmlns="http://www.w3.org/2000/svg" width="24" height="24" style="shape-rendering:geometricPrecision;text-rendering:geometricPrecision;image-rendering:optimizeQuality;fill-rule:evenodd;clip-rule:evenodd"><path fill="#ee7b76" d="M7.5-.5h12v15q-2.127 2.712-6 2v7h-1v-6h-3v6h-1q.483-8.787-1-17z" style="opacity:.824"/><path fill="#3a9fdc" d="M4.5 6.5h-1a44 44 0 0 0-3-2q6.007-8.013 4 2" style="opacity:.719"/><path fill="#efd8d7" d="M9.5 1.5q2.755.21 1 2-1.196-.686-1-2" style="opacity:1"/><path fill="#eeefee" d="M12.5 1.5q2.755.21 1 2-1.195-.686-1-2" style="opacity:1"/><path fill="#efe3e3" d="M15.5 1.5q2.755.21 1 2-1.195-.686-1-2M12.5 4.5q2.755.21 1 2-1.195-.686-1-2" style="opacity:1"/><path fill="#f2be2a" d="M-.5 6.5h8q1.483 8.213 1 17h-9z" style="opacity:.839"/><path fill="#f0e6c8" d="M1.5 11.5q2.755.21 1 2-1.196-.686-1-2" style="opacity:1"/><path fill="#eeefee" d="M1.5 14.5q2.755.21 1 2-1.196-.686-1-2" style="opacity:1"/><path fill="#f0eadb" d="M4.5 14.5q2.755.21 1 2-1.196-.686-1-2" style="opacity:1"/><path fill="#426997" d="M19.5 14.5q1.45 1.96 4 2v4l-2-1q-1-2-2 0-3.073-1.711-6 0v-3q3.873.712 6-2" style="opacity:.828"/><path fill="#426592" d="M12.5 23.5h-3v-6h3z" style="opacity:1"/><path fill="#7baecd" d="M19.5 19.5q1 2 2 0l2 1v1q-2 0-2 2h-8v-4q2.927-1.711 6 0" style="opacity:1"/><path fill="#aaab5e" d="M21.5 19.5q-1 2-2 0 1-2 2 0" style="opacity:1"/><path fill="#a1aa72" d="M23.5 21.5v2h-2q0-2 2-2" style="opacity:.047"/></svg>