<svg xmlns="http://www.w3.org/2000/svg" width="24" height="24" style="shape-rendering:geometricPrecision;text-rendering:geometricPrecision;image-rendering:optimizeQuality;fill-rule:evenodd;clip-rule:evenodd"><path fill="#a2b9e2" d="M21.5-.5h2v24h-3a10 10 0 0 1-1-3q2.766-10.277 2-21" style="opacity:.967"/><path fill="#dadced" d="M1.5-.5h20q.766 10.723-2 21a10 10 0 0 0 1 3h-21v-21q2.322-.482 2-3" style="opacity:.995"/><path fill="#f3df99" d="M1.5 3.5h17v7H.5q-.303-3.675 1-7" style="opacity:1"/><path fill="#cad1c2" d="M2.5 5.5q2.21.857 5 0-.255 1.983 1 3.5-5.058 1.682-6-3.5" style="opacity:1"/><path fill="#bbcdd4" d="M10.5 5.5q1.345 1.647 2.5 0 1.048 2.36-1 4-1-4-2 0-.869-2.143.5-4" style="opacity:1"/><path fill="#c4d0c9" d="M14.5 5.5q4.332 1.56 1 4 .185-1.665-1-4" style="opacity:1"/><path fill="#aaa7d5" d="M9.5 11.5h8v3h-8z" style="opacity:1"/><path fill="#df77a6" d="M1.5 12.5h6v8h-6z" style="opacity:1"/><path fill="#928ec8" d="M9.5 15.5q4.12-.47 8 1l-4 1q-2.75-.128-4-2" style="opacity:1"/><path fill="#9e9ccf" d="M9.5 18.5a21.1 21.1 0 0 1 9 1l-4.5 1q-2.977-.103-4.5-2" style="opacity:1"/></svg>