<svg xmlns="http://www.w3.org/2000/svg" width="24" height="24" style="shape-rendering:geometricPrecision;text-rendering:geometricPrecision;image-rendering:optimizeQuality;fill-rule:evenodd;clip-rule:evenodd"><path fill="#0fa5fa" d="M14.5-.5h2q0 1 1 1v1q-1 0-1 1h-1q-1.356-1.064-1-3" style="opacity:.984"/><path fill="#0940bb" d="M5.5 3.5h2q-2.297 2.137 1 2 1.875-.116 2.5-2 .696.891.5 2v1h-5q-2 .5 0 1v8h-2q-.116-1.875-2-2.5l3-2.5a31 31 0 0 1-2-2q0-1-1-1v-1q-.305-2.317-2-4l1-1q1.684 1.695 4 2m2 0h1v2q-3.297.137-1-2" style="opacity:.31"/><path fill="#08a9fd" d="M8.5 3.5h-3q1.5-6 3 0" style="opacity:.555"/><path fill="#0ca9fc" d="M14.5 3.5q-.5 1.5-2 2h-1a2.43 2.43 0 0 0-.5-2q-.625 1.884-2.5 2v-2q2.835-3.753 6 0" style="opacity:.363"/><path fill="#013bb9" d="M18.5-.5h2q.68 1.438 2 2.5-2.461 1.693-3 4.5v1q-1 0-1 1h-1q-1.258-.513-1-2-.5-2-1 0h-3v-1q1.5-.5 2-2 1 0 1-1h1q2.586.06 1-1v-1q1 0 1-1" style="opacity:.333"/><path fill="#0eacfc" d="M2.5 6.5v1q1 0 1 1 .885.977 2 2l-3 2.5q1.884.625 2 2.5-4.896-.339-3-4.5-.85-1.492-2-2.5v-2q1.5-2 3 0" style="opacity:.559"/><path fill="#26b2fa" d="M19.5 8.5v-2q2.05-2.03 3 1-1.237 1.329-3 1" style="opacity:1"/><path fill="#a9aeb7" d="M6.5 6.5h10q-.258 1.487 1 2-1.83 2.675 0 5v1q-1 0-1 1t-1 1h-9v-10" style="opacity:1"/><path fill="#2c79d6" d="M17.5 8.5h2q1.18 2.406 4 2v2q-1.763-.329-3 1 2.03 1.536 2 4-2.518-.322-3 2l-2-2q.258-1.487-1-2 0-1 1-1 2-.5 0-1-1.83-2.325 0-5" style="opacity:.49"/><path fill="#526fa8" d="M8.5 7.5q9.607-1.64 7 8h-8q-.332-4.168 1-8" style="opacity:1"/><path fill="#e5c224" d="M8.5 9.5h6q.728 6.988-5.5 4a8.43 8.43 0 0 1-.5-4" style="opacity:1"/><path fill="#114fc7" d="M6.5 16.5h9q.513 1.258 2 1v5q-1.763.329-3-1 1.73-1.78 0-3a88 88 0 0 1-6 0q-.5-2-1 0h-4q.482-2.322 3-2" style="opacity:.404"/><path fill="#003dba" d="M3.5 18.5q-.753 2.378-3 1.5 1.116-1.559 3-1.5" style="opacity:.276"/><path fill="#0340b8" d="M19.5 19.5q2.242-.128 3 2-2.844 1.71-3-2" style="opacity:.297"/><path fill="#1c99ef" d="M14.5 18.5q-1.818 6.014-7 3-1.858.664-3 2h-1q-1.64-3.1 1.5-2 .725-1.422.5-3h3q3.026.102 6 0" style="opacity:.51"/></svg>