<svg xmlns="http://www.w3.org/2000/svg" width="32" height="32" style="shape-rendering:geometricPrecision;text-rendering:geometricPrecision;image-rendering:optimizeQuality;fill-rule:evenodd;clip-rule:evenodd"><path fill="#58575c" d="M26.5 11.5q0 1-1 1 0-1-1-1v-1q2.404-4.902-1.5-9a10.5 10.5 0 0 0-2.5 3v7q-1 0-1-1V.5h7zm-2-1q.356-1.937-1-3a6.54 6.54 0 0 0-3-3 10.5 10.5 0 0 1 2.5-3q3.904 4.098 1.5 9" style="opacity:.913"/><path fill="#e76871" d="M9.5 2.5a5.6 5.6 0 0 0 1 3q2.687 1.005 5 2-2.313.995-5 2a5.58 5.58 0 0 0-1 3 31 31 0 0 0-2 2q-1.428-2.318-1-5-3.02-.163-5 2-1.46-3.672-1-8 2.464-.03 4 2 2.576-1.752 2-5 2.518-.322 3 2" style="opacity:.936"/><path fill="#93d066" d="M9.5 2.5q5.158-.37 10 1v2q-1.657 1.65-4 2a111 111 0 0 0-5-2 5.6 5.6 0 0 1-1-3" style="opacity:1"/><path fill="#439dda" d="M20.5 4.5a6.54 6.54 0 0 1 3 3l-3 2z" style="opacity:.872"/><path fill="#4d9bd7" d="M19.5 5.5v5l-4 1q-3.517.718-4 4.5 1.177 3.89 4 6.5v3q-5.065.648-9-2 1.983.255 3.5-1 .046-5.463-.5-10a5.58 5.58 0 0 1 1-3q2.687-1.005 5-2 2.343-.35 4-2" style="opacity:.991"/><path fill="#8ad967" d="M23.5 7.5q1.356 1.063 1 3v1h-4v-2z" style="opacity:1"/><path fill="#8dd566" d="M9.5 12.5q.546 4.537.5 10-1.517 1.255-3.5 1-5.968-4.368-5-12 1.98-2.163 5-2-.428 2.682 1 5a31 31 0 0 1 2-2" style="opacity:1"/><path fill="#b8bd4f" d="M19.5 10.5q0 1 1 1h4q1 0 1 1h-10v-1z" style="opacity:1"/><path fill="#fba138" d="M26.5 11.5h4q.925 9.147-2 17h-12q-1.356-1.063-1-3v-13h10q1 0 1-1" style="opacity:.923"/><path fill="#8cd763" d="M15.5 11.5v11q-2.823-2.61-4-6.5.483-3.782 4-4.5" style="opacity:1"/><path fill="#ee676a" d="M20.5 14.5q5.98 2.835-.5 5-1.588-.195-2.5-1.5a14.7 14.7 0 0 0 3-3.5" style="opacity:1"/><path fill="#71c6e8" d="M23.5 20.5q6.471.408 1.5 4a10.1 10.1 0 0 1-1.5-4" style="opacity:1"/><path fill="#313034" d="M16.5 28.5h4q-.18 1.63-2 2-1.82-.37-2-2" style="opacity:.571"/><path fill="#3e3d41" d="M25.5 28.5h3q-1.5 4-3 0" style="opacity:.789"/></svg>